<?xml version="1.0" encoding="UTF-8" standalone="no"?>
<svg
   xmlns:dc="http://purl.org/dc/elements/1.1/"
   xmlns:cc="http://creativecommons.org/ns#"
   xmlns:rdf="http://www.w3.org/1999/02/22-rdf-syntax-ns#"
   xmlns:svg="http://www.w3.org/2000/svg"
   xmlns="http://www.w3.org/2000/svg"
   viewBox="0 0 960 960"
   height="960"
   width="960"
   xml:space="preserve"
   id="svg2"
   version="1.1"><metadata
     id="metadata8"><rdf:RDF><cc:Work
         rdf:about=""><dc:format>image/svg+xml</dc:format><dc:type
           rdf:resource="http://purl.org/dc/dcmitype/StillImage" /></cc:Work></rdf:RDF></metadata><defs
     id="defs6" /><g
     transform="matrix(1.3333333,0,0,-1.3333333,0,960)"
     id="g10"><g
       transform="scale(0.1)"
       id="g12"><path
         id="path14"
         style="fill:#ffffff;fill-opacity:1;fill-rule:nonzero;stroke:none"
         d="m 6431.21,3824.17 c -157.28,410.04 -402.37,713.91 -600.89,723.39 321.47,-350.09 365.07,-595.58 415.37,-783.62 136.05,-508.58 -145.18,-1051.46 -635.57,-1225.34 -189.96,-67.34 -393.42,-72.47 -577.39,50.92 34.95,-7.12 69.65,-15.83 104.86,-21.1 411.39,-61.59 786.28,112.86 875.47,561.84 65.33,328.79 -64.54,598.73 -277.47,825.18 -258.19,274.59 -542.42,524.49 -809.93,790.57 -160.27,159.43 -223.28,506.62 -133.57,665.98 186.58,331.51 547.62,332.57 793.24,112.14 114.3,-102.58 184.21,-254.61 259.66,-363.23 45.01,322.06 -221.41,602.3 -437.84,672.71 -170.37,55.44 -346.26,56.39 -524.55,-12.72 -249.2,-96.6 -346.6,-305.67 -428.34,-541.28 -125.92,199.57 -245.14,382.28 -357.75,568.97 -91.68,152.01 -93.9,319.74 -27.66,476.65 81.09,192.11 361.32,271.82 607.4,180.09 9.18,-3.77 18.41,-7.39 27.56,-11.26 10.01,-4.23 19.88,-8.7 29.83,-13.04 595.54,-267.23 1049.01,-691.29 1368.37,-1264.01 3.09,-5.76 6.25,-11.48 9.29,-17.27 36.83,-70.08 70.98,-141.77 102.03,-215.19 43.16,-102.06 79.93,-206.05 110.62,-311.61 27.98,-98.69 50.93,-198.85 69.76,-300.23 23.47,-134.39 37.13,-270.92 41.06,-409.07 -1.39,-46.51 -3.56,-93.13 -3.56,-139.47 z M 5999.16,2367.4 c -111.92,-177.15 -243.46,-341.76 -393.77,-492.06 -78.1,-78.1 -160.13,-151.07 -245.69,-218.95 -3.24,-1.86 -6.57,-3.88 -9.73,-5.61 -24.91,131.1 -127.26,260.21 -214.62,370.98 -88.14,111.76 -206.78,199.48 -286.05,273.46 175.93,-29.79 377.99,-100.6 574.2,-87.05 199.82,13.8 393.92,110.62 577.94,167.22 -0.58,-2.52 -1.52,-5.32 -2.28,-7.99 z M 4988.63,1567.5 c -45.22,-137.78 -142.22,-191.16 -285.45,-212.99 -249.43,-38.03 -463.65,11.5 -642.07,190.65 -125.52,126.02 -121.03,247.57 20.45,399.66 -194.63,-55.53 -272.6,-182.34 -231.44,-345.04 58.47,-231.18 180.05,-344.19 504.78,-453.6 -85.13,-23.47 -171.27,-43.04 -258.32,-58.38 -83.45,-3.21 -165.14,5.53 -228.31,27.51 -134.56,46.82 -181.87,175.67 -184.15,294.57 -2.51,131.1 112.89,353.19 174.31,467.76 131.43,245.16 178.39,407.2 190.61,713.26 72.1,-50.77 141.79,-105.2 208.69,-161.74 213.07,-180.11 416.73,-371.56 621,-561.84 85.04,-79.22 152.03,-171.45 109.9,-299.82 z m -727.38,2186.44 c 0,-79.2 -159.16,-125.65 -243.72,-59.25 -8.41,6.6 -32.8,33.87 -33.04,59.25 -0.21,22.17 22.74,42.89 28.95,47.11 82.79,56.3 247.81,32.08 247.81,-47.11 z m 690.65,475.03 c 100.94,-85.66 192.51,-153.48 272.18,-233.2 139.94,-140.04 284.91,-277.92 404.78,-434.33 114.85,-149.9 114.58,-330.76 12.34,-489.47 -81.22,-126.07 -203.53,-224.48 -365.81,-205.8 -298.1,34.33 -496.38,238.64 -711.43,430.79 519.32,151.81 424.34,548.02 387.94,932.01 z M 3600,5000.99 c -45.34,-0.76 -92.75,-4.58 -142.38,-11.89 -377.67,-55.63 -535.45,-301.39 -595.76,-664.64 -16.31,-98.26 13.2,-203.69 17.55,-306.01 1.38,-32.64 -4.12,-67.47 -14.84,-98.58 -0.62,-1.47 -1.19,-3.05 -1.65,-4.84 -1.55,-4.23 -3.01,-8.46 -4.44,-12.68 -20.92,-50.59 -87.53,-118.8 -87.53,-118.8 -39.06,-56.67 10,-143.6 10,-143.6 -63.42,-16.32 -153,12.51 -179.58,133.97 -59.9,273.61 -13.81,536.44 113.44,770.96 186.53,343.77 405.62,669.98 613.2,1002.18 124.51,199.29 204.71,400.82 148.3,647.33 -47.88,209.27 -170.1,335.85 -354.45,419.52 -22.66,10.28 -46.74,17.34 -80.63,29.72 113.68,44.45 337.49,68.25 558.77,69.66 221.28,-1.41 445.09,-25.21 558.77,-69.66 -33.89,-12.38 -57.97,-19.44 -80.63,-29.72 -184.35,-83.67 -306.57,-210.25 -354.45,-419.52 -56.41,-246.51 23.79,-448.04 148.3,-647.33 207.58,-332.2 426.67,-658.41 613.2,-1002.18 127.25,-234.52 173.34,-497.35 113.44,-770.96 -26.58,-121.46 -116.16,-150.29 -179.58,-133.97 0,0 49.06,86.93 10,143.6 0,0 -66.61,68.21 -87.53,118.8 -1.43,4.22 -2.89,8.45 -4.44,12.68 -0.46,1.79 -1.03,3.37 -1.65,4.84 -10.72,31.11 -16.22,65.94 -14.84,98.58 4.35,102.32 33.86,207.75 17.55,306.01 -60.31,363.25 -218.09,609.01 -595.76,664.64 -49.63,7.31 -97.04,11.13 -142.38,11.89 z m -417.53,-1306.3 c -84.56,-66.4 -243.72,-19.95 -243.72,59.25 0,79.19 165.02,103.41 247.81,47.11 6.21,-4.22 29.16,-24.94 28.95,-47.11 -0.24,-25.38 -24.63,-52.65 -33.04,-59.25 z M 1924.61,2866.17 c -162.28,-18.68 -284.59,79.73 -365.81,205.8 -102.24,158.71 -102.51,339.57 12.34,489.47 119.87,156.41 264.84,294.29 404.78,434.33 79.67,79.72 171.24,147.54 272.18,233.2 -36.4,-383.99 -131.38,-780.2 387.94,-932.01 -215.05,-192.15 -413.33,-396.46 -711.43,-430.79 z m 140.04,-844.41 c -87.36,-110.77 -189.71,-239.88 -214.62,-370.98 -3.16,1.73 -6.49,3.75 -9.73,5.61 -85.56,67.88 -167.59,140.85 -245.69,218.95 -150.31,150.3 -281.85,314.91 -393.77,492.06 -0.76,2.67 -1.7,5.47 -2.28,7.99 184.02,-56.6 378.12,-153.42 577.94,-167.22 196.21,-13.55 398.27,57.26 574.2,87.05 -79.27,-73.98 -197.91,-161.7 -286.05,-273.46 z M 768.789,3824.17 c 0,46.34 -2.168,92.96 -3.555,139.47 3.926,138.15 17.586,274.68 41.055,409.07 18.828,101.38 41.777,201.54 69.766,300.23 30.683,105.56 67.453,209.55 110.617,311.61 31.048,73.43 65.208,145.12 102.038,215.22 3.13,5.7 6.05,11.46 9.22,17.14 319.37,572.77 772.85,996.87 1368.43,1264.11 9.95,4.34 19.82,8.81 29.83,13.04 9.15,3.87 18.38,7.49 27.56,11.26 246.08,91.73 526.31,12.02 607.4,-180.09 66.24,-156.91 64.02,-324.64 -27.66,-476.65 -112.61,-186.69 -231.83,-369.4 -357.75,-568.97 -81.74,235.61 -179.14,444.68 -428.34,541.28 -178.29,69.11 -354.18,68.16 -524.55,12.72 -216.43,-70.41 -482.85,-350.65 -437.84,-672.71 75.45,108.62 145.36,260.65 259.66,363.23 245.62,220.43 606.66,219.37 793.24,-112.14 89.71,-159.36 26.7,-506.55 -133.57,-665.98 -267.51,-266.08 -551.74,-515.98 -809.93,-790.57 -212.93,-226.45 -342.8,-496.39 -277.47,-825.18 89.19,-448.98 464.08,-623.43 875.47,-561.84 35.21,5.27 69.91,13.98 104.86,21.1 -183.97,-123.39 -387.43,-118.26 -577.39,-50.92 -490.39,173.88 -771.618,716.76 -635.571,1225.34 50.301,188.04 93.901,433.53 415.371,783.62 -198.52,-9.48 -443.606,-313.35 -600.891,-723.39 z m 6017.171,64.57 c 0.52,107.45 -4.99,213.29 -16.33,317.55 -0.07,0.58 -0.14,1.15 -0.2,1.73 -1.09,10.7 -2.46,21.33 -3.66,32 C 6587.25,5830.46 5238.12,7066.79 3600,7066.79 1961.88,7066.79 612.754,5830.46 434.23,4240.02 c -1.203,-10.67 -2.57,-21.3 -3.664,-32 -0.058,-0.58 -0.128,-1.15 -0.195,-1.73 -11.34,-104.26 -16.855,-210.1 -16.328,-317.55 0,-2.68 -0.098,-5.33 -0.098,-8.01 0,-1494.2 1028.675,-2747.96 2416.405,-3092.23 116.56,-37.488 218.95,-73.508 362.75,-128.27 261.3,-99.5 384.32,-238.449 399.37,-527.031 79.79,224.422 27.95,402.16 -87.98,563.02 -0.33,0.461 -0.64,0.922 -0.97,1.383 -143.48,198.367 -334.47,293.839 -548.52,390.198 -27.59,12.41 -117.26,55.87 -117.26,55.87 2.5,0.83 4.89,1.67 7.36,2.51 324.73,109.41 446.31,222.42 504.78,453.6 41.16,162.7 -36.81,289.51 -231.44,345.04 141.48,-152.09 145.97,-273.64 20.45,-399.66 -178.42,-179.15 -392.64,-228.68 -642.07,-190.65 -143.23,21.83 -240.23,75.21 -285.45,212.99 -42.13,128.37 24.86,220.6 109.9,299.82 204.27,190.28 407.93,381.73 621,561.84 6.99,5.91 67,51.18 102.42,80.67 56.56,47.05 182.41,135.39 328.51,218.5 111.74,63.55 321.78,24.86 309.39,-190 -8.33,-144.65 -41.77,-289.78 -80.01,-430.34 -63.36,-232.9 -146.37,-460.49 -208.22,-693.74 -30.33,-114.31 5.84,-252.97 75.31,-366.54 39.55,-64.628 89.84,-121.171 144.92,-160.39 178.29,-126.91 417.73,-163.789 614.81,-130.351 18.83,3.203 37.3,6.992 55.26,11.461 2.05,0.511 4.19,1.082 6.25,1.601 1427.39,315.629 2495.14,1588.379 2495.14,3110.699 0,2.68 -0.09,5.33 -0.09,8.01" /></g></g></svg>